<svg version="1.1" id="Calque_1" xmlns="http://www.w3.org/2000/svg" xmlns:xlink="http://www.w3.org/1999/xlink" x="0px" y="0px"
	 viewBox="0 0 180 46" style="enable-background:new 0 0 180 46;" xml:space="preserve">
<style type="text/css">
	.st0{fill:none;stroke:#999999;stroke-width:2;stroke-miterlimit:10;}
</style>
<title>picto bedroom</title>
<desc>Created with Sketch.</desc>
<g>
	<g>
		<polygon class="st0" points="146.6,44.5 32.7,44.5 32.7,38 32.7,1.5 146.6,1.5 146.6,36.2 		"/>
		<line class="st0" x1="32.7" y1="36.8" x2="146.6" y2="36.8"/>
		<path class="st0" d="M85.1,21.3H45.4l0,0c0-5.4,4.4-9.8,9.8-9.8h20C80.7,11.5,85.1,15.9,85.1,21.3L85.1,21.3z"/>
		<path class="st0" d="M134.4,21.3H94.7l0,0c0-5.4,4.4-9.8,9.8-9.8h20C130,11.5,134.4,15.9,134.4,21.3L134.4,21.3z"/>
		<path class="st0" d="M142.1,36.8H37.3v-3.9c0-6.4,5.2-11.6,11.6-11.6h81.5c6.4,0,11.6,5.2,11.6,11.6v3.9H142.1z"/>
		<rect x="1.2" y="23" class="st0" width="26.2" height="21.5"/>
		<line class="st0" x1="1.6" y1="33.7" x2="27" y2="33.7"/>
		<line class="st0" x1="8.1" y1="21.8" x2="19.8" y2="21.8"/>
		<line class="st0" x1="14.4" y1="8.3" x2="14.4" y2="22.3"/>
		<polygon class="st0" points="13.6,2.6 11.9,6 18.1,12 23.4,4.5 		"/>
		<rect x="152.2" y="23" class="st0" width="26.2" height="21.5"/>
		<line class="st0" x1="178" y1="33.7" x2="152.6" y2="33.7"/>
		<line class="st0" x1="165.7" y1="13.2" x2="165.7" y2="22.4"/>
		<line class="st0" x1="163.6" y1="14.9" x2="161" y2="22.2"/>
		<line class="st0" x1="168" y1="13.2" x2="168" y2="22.4"/>
		<line class="st0" x1="170.4" y1="13.2" x2="170.4" y2="22.4"/>
	</g>
</g>
<g>
	<path class="st0" d="M166.9,28.3c0,0-1.5,0-2,0c-0.6,0-1.1,0-1.1,0s0.5,0,1.1,0C165.4,28.3,166.9,28.3,166.9,28.3z"/>
	<path class="st0" d="M166.9,39.1c0,0-1.5,0-2,0c-0.6,0-1.1,0-1.1,0s0.5,0,1.1,0C165.4,39.1,166.9,39.1,166.9,39.1z"/>
</g>
<g>
	<path class="st0" d="M15.8,28.3c0,0-1.5,0-2,0c-0.6,0-1,0-1,0s0.5,0,1,0C14.4,28.3,15.8,28.3,15.8,28.3z"/>
	<path class="st0" d="M15.8,39.1c0,0-1.5,0-2,0c-0.6,0-1,0-1,0s0.5,0,1,0C14.4,39.1,15.8,39.1,15.8,39.1z"/>
</g>
</svg>
