<svg version="1.1" id="Calque_1" xmlns="http://www.w3.org/2000/svg" xmlns:xlink="http://www.w3.org/1999/xlink" x="0px" y="0px"
	 viewBox="0 0 159 91" style="enable-background:new 0 0 159 91;" xml:space="preserve">
<style type="text/css">
	.st0{fill:none;stroke:#999999;stroke-width:2;stroke-linecap:round;stroke-linejoin:round;}
	.st1{fill:none;stroke:#999999;stroke-width:2;stroke-linejoin:round;}
</style>
<title>Group 5</title>
<desc>Created with Sketch.</desc>
<g id="Page-1">
	<g id="_x30__x5F_calculator" transform="translate(-1085.000000, -470.000000)">
		<g id="stuffs" transform="translate(186.000000, 281.000000)">
			<g id="children-bedroom" transform="translate(896.000000, 190.000000)">
				<g id="Group-5" transform="translate(4.000000, 0.000000)">
					<g id="bed" transform="translate(0.000000, 4.000000)">
						<path id="Shape" class="st0" d="M0,23.9v60"/>
						<path id="Shape_1_" class="st0" d="M76.2,23.9v60"/>
						<path id="Shape_2_" class="st0" d="M0.6,39.5h74.9"/>
						<path id="Shape_3_" class="st0" d="M0.6,68.7h74.9"/>
						<path id="Shape_4_" class="st0" d="M13.4,40v28.6"/>
						<path id="Shape_5_" class="st0" d="M29.9,40v28.6"/>
						<path id="Shape_6_" class="st0" d="M45.3,40v28.6"/>
						<path id="Shape_7_" class="st0" d="M61.8,40v28.6"/>
						<path id="Shape_8_" class="st0" d="M48.4,11.4v8.9"/>
						<path id="Shape_9_" class="st0" d="M33.8,11.3h29.3"/>
						<path id="Shape_10_" class="st0" d="M57.7,11.4v9.4"/>
						<path id="Shape_11_" class="st0" d="M39.2,11.4v9.4"/>
						<path id="Shape_12_" class="st0" d="M48.4,0.7v12.5"/>
					</g>
					<g id="book-shelf" transform="translate(98.000000, 0.000000)">
						<g id="Outline_Icons" transform="translate(32.949337, 14.137341)">
							<g id="Group" transform="translate(-0.000000, 0.000000)">
							</g>
						</g>
						<path id="Shape_13_" class="st1" d="M0.4,8.2c0-4.2,2.2-7.6,5-7.6h47.7c2.8,0,5,3.4,5,7.6v79.8h-6.2l-2.6-11.4H9.2L6.7,88.1
							H0.4V8.2z"/>
					</g>
				</g>
			</g>
		</g>
	</g>
</g>
<line class="st1" x1="153.2" y1="21.1" x2="153.2" y2="34.8"/>
<line class="st1" x1="150.1" y1="21.1" x2="150.1" y2="34.8"/>
<line class="st1" x1="147" y1="21.1" x2="147" y2="34.8"/>
<line class="st1" x1="143.9" y1="21.1" x2="143.9" y2="34.8"/>
<line class="st1" x1="140.8" y1="21.1" x2="140.8" y2="34.8"/>
<line class="st1" x1="137.8" y1="21.1" x2="134.8" y2="34.8"/>
<line class="st1" x1="103.1" y1="55.5" x2="103.1" y2="69.1"/>
<line class="st1" x1="106.2" y1="55.5" x2="106.2" y2="69.1"/>
<line class="st1" x1="109.4" y1="55.5" x2="109.4" y2="69.1"/>
<line class="st1" x1="112.5" y1="55.5" x2="112.5" y2="69.1"/>
<line class="st1" x1="115.6" y1="55.5" x2="115.6" y2="69.1"/>
<line class="st1" x1="118.6" y1="55.5" x2="121.6" y2="69.1"/>
<circle class="st0" cx="40.2" cy="29.2" r="3.1"/>
<circle class="st0" cx="49.4" cy="29.2" r="3.1"/>
<circle class="st0" cx="58.7" cy="29.2" r="3.1"/>
<line class="st1" x1="99.5" y1="69.1" x2="157.1" y2="69.1"/>
<line class="st1" x1="99.5" y1="43.8" x2="157.1" y2="43.8"/>
<line class="st1" x1="99.5" y1="34.8" x2="157.1" y2="34.8"/>
<line class="st1" x1="99.5" y1="9.3" x2="157.1" y2="9.3"/>
</svg>
