<svg version="1.1" id="Calque_1" xmlns="http://www.w3.org/2000/svg" xmlns:xlink="http://www.w3.org/1999/xlink" x="0px" y="0px"
	 viewBox="0 0 163 72" style="enable-background:new 0 0 163 72;" xml:space="preserve">
<style type="text/css">
	.st0{fill:none;stroke:#999999;stroke-width:2;stroke-miterlimit:10;}
</style>
<title>picto living room</title>
<desc>Created with Sketch.</desc>
<path class="st0" d="M16.4,70.7H1V44c0-2.2,1.8-4,4-4h11.4V70.7z"/>
<path class="st0" d="M133.6,70.7h-15.4V40h11.4c2.2,0,3.9,1.8,3.9,3.9V70.7z"/>
<path class="st0" d="M118.1,70.7H16.4V39.4c0-6.1,5-11.1,11.1-11.1H107c6.1,0,11.1,5,11.1,11.1V70.7z"/>
<line class="st0" x1="65.4" y1="28.6" x2="65.4" y2="55"/>
<line class="st0" x1="17.4" y1="49.8" x2="16.2" y2="49.8"/>
<line class="st0" x1="117.9" y1="55" x2="17.4" y2="55"/>
<line class="st0" x1="141.8" y1="70.7" x2="162.4" y2="70.7"/>
<line class="st0" x1="152.2" y1="70.7" x2="152.2" y2="23.3"/>
<path class="st0" d="M142.5,21.3c0,0,7,2.7,19.4,0V3.1c0,0-8.9-3.8-19.4,0V21.3z"/>
</svg>
