<svg version="1.1" id="Calque_1" xmlns="http://www.w3.org/2000/svg" xmlns:xlink="http://www.w3.org/1999/xlink" x="0px" y="0px"
	 viewBox="0 0 112 94" style="enable-background:new 0 0 112 94;" xml:space="preserve">
<style type="text/css">
	.st0{fill:none;stroke:#999999;stroke-width:2;stroke-linecap:square;stroke-miterlimit:10;}
</style>
<title>picto_office</title>
<desc>Created with Sketch.</desc>
<g>
	<polyline class="st0" points="18.4,2.3 2.8,9.9 8.4,35.8 	"/>
	<polygon class="st0" points="15.6,14 30.1,8 22.1,1.8 16.9,4.1 	"/>
	<path class="st0" d="M109.8,40.7v36.1H83.6c-5.1,0-9.2-4.2-9.2-9.4V40.7"/>
	<line class="st0" x1="109.8" y1="40.4" x2="109.8" y2="92"/>
	<polyline class="st0" points="1.6,92 1.6,39.5 16.1,39.5 	"/>
	<line class="st0" x1="37.1" y1="64.5" x2="37.1" y2="50.8"/>
	<line class="st0" x1="24.1" y1="84.3" x2="50.1" y2="84.3"/>
	<path class="st0" d="M54.2,70.1H20c-1.5,0-2.7-1.2-2.7-2.7v-0.1c0-1.5,1.2-2.7,2.7-2.7h34.2c1.5,0,2.7,1.2,2.7,2.7v0.1
		C57,68.9,55.7,70.1,54.2,70.1z"/>
	<line class="st0" x1="74.6" y1="53.3" x2="108.9" y2="53.3"/>
	<line class="st0" x1="74.6" y1="64.5" x2="108.9" y2="64.5"/>
	<polyline class="st0" points="13.3,37.4 8.4,37.4 3.5,37.4 	"/>
	<path class="st0" d="M53.2,50H21c-2.5,0-4.6-2-4.6-4.6V28.1c0-2.5,2-4.6,4.6-4.6h32.1c2.5,0,4.6,2,4.6,4.6v17.4
		C57.7,48,55.7,50,53.2,50z"/>
	<polyline class="st0" points="84.3,39.6 87.2,34.6 95.3,34.6 98,39.6 	"/>
	<path class="st0" d="M105.9,34.6H76.1c-1.4,0-2.5-1.1-2.5-2.5V11.8c0-1.4,1.1-2.5,2.5-2.5h29.8c1.4,0,2.5,1.1,2.5,2.5v20.3
		C108.4,33.5,107.3,34.6,105.9,34.6z"/>
	<line class="st0" x1="73.7" y1="28.9" x2="108.4" y2="28.9"/>
	<line class="st0" x1="37.1" y1="84.1" x2="37.1" y2="72.2"/>
	<line class="st0" x1="58.2" y1="40.4" x2="109.8" y2="40.4"/>
	<ellipse class="st0" cx="24.6" cy="89.7" rx="3.2" ry="3.3"/>
	<ellipse class="st0" cx="37.1" cy="89.7" rx="3.2" ry="3.3"/>
	<ellipse class="st0" cx="49.6" cy="89.7" rx="3.2" ry="3.3"/>
</g>
</svg>
