<svg height="71" viewBox="0 0 71 71" width="71" xmlns="http://www.w3.org/2000/svg"><g fill="none" fill-rule="evenodd" stroke="#cc003d" stroke-linejoin="round" stroke-width="2"><path d="m10.514 66.766a4.434 4.434 0 0 1 -6.28 0 4.435 4.435 0 0 1 0-6.277l19.452-19.458 6.28 6.28z"/><path d="m20.55 37.89 12.555 12.56" stroke-linecap="round"/><path d="m58.446 12.554-31.645 31.645m35.151-28.143-7.328-7.322 10.484-7.283 4.441 4.44zm-26.778 12.966-11.088-11.086c1.824-4.31.989-9.483-2.529-12.998-3.514-3.508-8.459-4.346-12.772-2.525l5.99 6.244v6.117h-6.379l-6.113-5.862c-1.824 4.317-.986 9.374 2.528 12.885 3.512 3.518 8.684 4.296 12.992 2.473l11.091 11.067m6.28 6.247 11.096 11.098c-1.824 4.31-.99 9.48 2.528 12.995 3.515 3.511 8.684 4.346 12.998 2.525l-6.022-6.247v-5.922h5.921l6.375 5.886c1.824-4.31.986-9.48-2.529-12.992-3.514-3.517-8.684-4.355-12.995-2.528l-11.089-11.094"/></g></svg>