<svg width="75" height="60" viewBox="0 0 75 60" version="1.1" xmlns="http://www.w3.org/2000/svg"><title>Group</title><g stroke="#CC003D" stroke-width="2" fill="none" fill-rule="evenodd" stroke-linejoin="round"><path d="M24.519 58.226h23.676v-14.18c0-1.576-9.37-6.302-17.177-9.453V28.29s3.123-1.103 3.123-7.878c2.17 0 3.123-6.302.1-6.302 0-.668 2.392-4.122 1.461-7.878-1.561-6.302-17.177-6.302-18.738 0-6.574-1.358-1.562 6.97-1.562 7.878-3.123 0-2.173 6.302 0 6.302 0 6.775 3.123 7.878 3.123 7.878v6.302C10.718 37.743 1.35 42.47 1.35 44.046v14.18h23.17z"/><path d="M56.002 58.226H73.18v-14.18c0-1.576-7.808-3.781-14.054-6.302v-4.727s3.123-.882 3.123-6.302c1.74 0 2.418-6.302 0-6.302 0-.533 2.533-3.362 1.562-6.302-1.562-4.727-14.054-4.727-15.615 0-5.263-1.087-1.562 5.577-1.562 6.302-2.498 0-1.74 6.302 0 6.302 0 5.42 3.123 6.302 3.123 6.302v3.151" stroke-linecap="round"/></g></svg>