<svg width="67" height="90" viewBox="0 0 67 90" version="1.1" xmlns="http://www.w3.org/2000/svg"><title>building</title><g stroke="#CC003D" stroke-width="2" fill="none" fill-rule="evenodd" stroke-linecap="round" stroke-linejoin="round"><path d="M4.926 16.822h57.149v71.926H4.926zm60.958-3.786L33.5 1.68 1.116 13.036v3.786h64.768z"/><path d="M27.785 69.82h11.43v18.928h-11.43zm-15.24-45.427h7.62v7.571h-7.62zm15.24 0h11.43v7.571h-11.43zm19.05 0h7.62v7.571h-7.62zm-34.29 15.142h7.62v7.571h-7.62zm15.24 0h11.43v7.571h-11.43zm19.05 0h7.62v7.571h-7.62zm-34.29 15.143h7.62v7.571h-7.62zm15.24 0h11.43v7.571h-11.43zm19.05 0h7.62v7.571h-7.62zM12.545 69.82h7.62v7.571h-7.62zm34.29 0h7.62v7.571h-7.62z"/></g></svg>