<svg width="71" height="71" viewBox="0 0 71 71" version="1.1" xmlns="http://www.w3.org/2000/svg"><title>tool</title><g stroke="#CC003D" stroke-width="2" fill="none" fill-rule="evenodd" stroke-linejoin="round"><path d="M10.514 66.766a4.434 4.434 0 0 1-6.28 0 4.435 4.435 0 0 1 0-6.277l19.452-19.458 6.28 6.28-19.452 19.455z"/><path d="M20.55 37.89l12.555 12.56" stroke-linecap="round"/><path d="M58.446 12.554L26.801 44.199m35.151-28.143l-7.328-7.322 10.484-7.283 4.441 4.44zM35.174 29.022L24.086 17.936c1.824-4.31.989-9.483-2.529-12.998C18.043 1.43 13.098.592 8.785 2.413l5.99 6.244v6.117H8.396L2.283 8.912c-1.824 4.317-.986 9.374 2.528 12.885 3.512 3.518 8.684 4.296 12.992 2.473l11.091 11.067m6.28 6.247L46.27 52.682c-1.824 4.31-.99 9.48 2.528 12.995 3.515 3.511 8.684 4.346 12.998 2.525l-6.022-6.247v-5.922h5.921l6.375 5.886c1.824-4.31.986-9.48-2.529-12.992-3.514-3.517-8.684-4.355-12.995-2.528L41.457 35.305"/></g></svg>