<?xml version="1.0" encoding="UTF-8" standalone="no"?>
<svg width="522px" height="342px" viewBox="0 0 522 342" version="1.1" xmlns="http://www.w3.org/2000/svg" xmlns:xlink="http://www.w3.org/1999/xlink">
    <!-- Generator: Sketch 50.2 (55047) - http://www.bohemiancoding.com/sketch -->
    <title>calendar</title>
    <desc>Created with Sketch.</desc>
    <defs></defs>
    <g id="Page-1" stroke="none" stroke-width="1" fill="none" fill-rule="evenodd">
        <g id="pricing" transform="translate(-130.000000, -3055.000000)">
            <g id="pickups" transform="translate(0.000000, 2274.000000)">
                <g id="deliveries-prices">
                    <g id="calendar" transform="translate(130.000000, 784.000000)">
                        <rect id="Rectangle-16" fill="#E6E6E6" x="0" y="11" width="522" height="328" rx="5"></rect>
                        <g id="Group-3" transform="translate(20.000000, 60.000000)">
                            <rect id="Rectangle-14" fill="#4BCA83" x="0" y="52" width="67.1956949" height="50"></rect>
                            <rect id="Rectangle-14-Copy-28" fill="#D8D8D8" x="0" y="0" width="67.1956949" height="50"></rect>
                            <rect id="Rectangle-14-Copy-14" fill="#4BCA83" x="0" y="156" width="67.1956949" height="50"></rect>
                            <rect id="Rectangle-14-Copy-7" fill="#4BCA83" x="0" y="104" width="67.1956949" height="50"></rect>
                            <rect id="Rectangle-14-Copy-15" fill="#4BCA83" x="0" y="208" width="67.1956949" height="50"></rect>
                            <rect id="Rectangle-14-Copy-4" fill="#4BCA83" x="276" y="52" width="67.1956949" height="50"></rect>
                            <rect id="Rectangle-14-Copy-29" fill="#D8D8D8" x="276" y="0" width="67.1956949" height="50"></rect>
                            <rect id="Rectangle-14-Copy-16" fill="#4BCA83" x="276" y="156" width="67.1956949" height="50"></rect>
                            <rect id="Rectangle-14-Copy-8" fill="#4BCA83" x="276" y="104" width="67.1956949" height="50"></rect>
                            <rect id="Rectangle-14-Copy-17" fill="#EB7799" x="276" y="208" width="67.1956949" height="50"></rect>
                            <rect id="Rectangle-14-Copy-2" fill="#4BCA83" x="138" y="52" width="67.1956949" height="50"></rect>
                            <rect id="Rectangle-14-Copy-30" fill="#D8D8D8" x="138" y="0" width="67.1956949" height="50"></rect>
                            <rect id="Rectangle-14-Copy-18" fill="#4BCA83" x="138" y="156" width="67.1956949" height="50"></rect>
                            <rect id="Rectangle-14-Copy-9" fill="#4BCA83" x="138" y="104" width="67.1956949" height="50"></rect>
                            <rect id="Rectangle-14-Copy-19" fill="#4BCA83" x="138" y="208" width="67.1956949" height="50"></rect>
                            <rect id="Rectangle-14-Copy-5" fill="#4BCA83" x="414" y="52" width="67.1956949" height="50"></rect>
                            <rect id="Rectangle-14-Copy-31" fill="#4BCA83" x="414" y="0" width="67.1956949" height="50"></rect>
                            <rect id="Rectangle-14-Copy-20" fill="#4BCA83" x="414" y="156" width="67.1956949" height="50"></rect>
                            <rect id="Rectangle-14-Copy-10" fill="#4BCA83" x="414" y="104" width="67.1956949" height="50"></rect>
                            <rect id="Rectangle-14-Copy-21" fill="#EB7799" x="414" y="208" width="67.1956949" height="50"></rect>
                            <rect id="Rectangle-14-Copy" fill="#4BCA83" x="69" y="52" width="67.1956949" height="50"></rect>
                            <rect id="Rectangle-14-Copy-32" fill="#D8D8D8" x="69" y="0" width="67.1956949" height="50"></rect>
                            <rect id="Rectangle-14-Copy-22" fill="#4BCA83" x="69" y="156" width="67.1956949" height="50"></rect>
                            <rect id="Rectangle-14-Copy-11" fill="#4BCA83" x="69" y="104" width="67.1956949" height="50"></rect>
                            <rect id="Rectangle-14-Copy-23" fill="#4BCA83" x="69" y="208" width="67.1956949" height="50"></rect>
                            <rect id="Rectangle-14-Copy-6" fill="#4BCA83" x="345" y="52" width="67.1956949" height="50"></rect>
                            <rect id="Rectangle-14-Copy-33" fill="#EB7799" x="345" y="0" width="67.1956949" height="50"></rect>
                            <rect id="Rectangle-14-Copy-24" fill="#4BCA83" x="345" y="156" width="67.1956949" height="50"></rect>
                            <rect id="Rectangle-14-Copy-12" fill="#4BCA83" x="345" y="104" width="67.1956949" height="50"></rect>
                            <rect id="Rectangle-14-Copy-25" fill="#EB7799" x="345" y="208" width="67.1956949" height="50"></rect>
                            <rect id="Rectangle-14-Copy-3" fill="#4BCA83" x="207" y="52" width="67.1956949" height="50"></rect>
                            <rect id="Rectangle-14-Copy-34" fill="#D8D8D8" x="207" y="0" width="67.1956949" height="50"></rect>
                            <rect id="Rectangle-14-Copy-26" fill="#4BCA83" x="207" y="156" width="67.1956949" height="50"></rect>
                            <rect id="Rectangle-14-Copy-13" fill="#4BCA83" x="207" y="104" width="67.1956949" height="50"></rect>
                            <rect id="Rectangle-14-Copy-27" fill="#4BCA83" x="207" y="208" width="67.1956949" height="50"></rect>
                        </g>
                        <circle id="Oval-3" fill="#F2F2F2" cx="157" cy="35" r="10"></circle>
                        <circle id="Oval-3-Copy" fill="#F2F2F2" cx="366" cy="35" r="10"></circle>
                        <path d="M156.5,33.5 L156.5,0.363916948" id="Line" stroke="#B6B6B6" stroke-width="5" stroke-linecap="square"></path>
                        <path d="M366.5,33.5 L366.5,0.363916948" id="Line-Copy" stroke="#B6B6B6" stroke-width="5" stroke-linecap="square"></path>
                    </g>
                </g>
            </g>
        </g>
    </g>
</svg>