<svg xmlns="http://www.w3.org/2000/svg" xmlns:xlink="http://www.w3.org/1999/xlink" width="100" height="100" viewBox="0 0 100 100">
    <defs>
        <path id="a" d="M50 0h50v100H0V0h50z"/>
        <path id="c" d="M0 100h100V0H0z"/>
    </defs>
    <g fill="none" fill-rule="evenodd">
        <mask id="b" fill="#fff">
            <use xlink:href="#a"/>
        </mask>
        <path fill="#F2F2F2" d="M100 50c0 27.614-22.386 50-50 50S0 77.614 0 50 22.386 0 50 0s50 22.386 50 50" mask="url(#b)"/>
        <path fill="#E5CA5A" d="M78.267 72.4H24.401c-1.1 0-2-.9-2-2V32.8c0-1.1.9-2 2-2h53.866c1.1 0 2 .9 2 2v37.6c0 1.1-.9 2-2 2"/>
        <mask id="d" fill="#fff">
            <use xlink:href="#c"/>
        </mask>
        <path fill="#515151" d="M22.4 45.867h57.867V38.4H22.4z" mask="url(#d)"/>
        <path fill="#FFF" d="M25.6 53.6h35.134v-4.533H25.6z" mask="url(#d)"/>
    </g>
</svg>
