<svg xmlns="http://www.w3.org/2000/svg" xmlns:xlink="http://www.w3.org/1999/xlink" width="100" height="100" viewBox="0 0 100 100">
    <defs>
        <path id="a" d="M50 0H0v100h100V0z"/>
        <path id="c" d="M0 100h100V0H0z"/>
        <path id="e" d="M.34 1.744h1.196V.38H.34z"/>
        <path id="g" d="M.385 2.664L4.36.294l3.974 2.37V7.38L4.36 9.75.385 7.38V2.664zm.55 4.38L4.384 9.08l3.423-2.035v-4.07L4.36.94.936 2.975v4.07z"/>
        <path id="i" d="M.079 1.906v3.256l2.73-1.628V.302z"/>
        <path id="k" d="M.359 3.314L3.112 1.71.359.082z"/>
        <path id="m" d="M.03 1.71l2.729 1.628V.082z"/>
        <path id="o" d="M.334 3.534V.302l2.73 1.604v3.256L.333 3.534zM1.986 2.24c.03.015.058.023.081.023.05 0 .079-.037.063-.118.023-.096-.049-.216-.144-.264l-.646-.383c-.072-.048-.144 0-.144.096 0 .095.072.215.144.263l.646.383z"/>
        <path id="q" d="M.317.29h2.538c1.221 0 1.723.504 1.723 1.39v.67c0 .526-.215.838-.718 1.053.599.12.934.55.958 1.197v.694c0 .91-.598 1.484-1.772 1.484H.317V.291zm1.221 1.006v1.7h1.173c.48 0 .647-.215.647-.598v-.575c0-.359-.192-.527-.647-.527H1.538zm0 2.682v1.771h1.245c.55 0 .79-.143.79-.623v-.502c0-.431-.191-.646-.67-.646H1.538z"/>
        <path id="s" d="M.049 2.21c0-.982.43-1.868 2.059-1.868 1.628 0 2.059.886 2.059 1.868v1.197c0 .982-.431 1.867-2.06 1.867C.48 5.274.05 4.39.05 3.407V2.21zm1.173 1.22c0 .552.215.815.862.815.646 0 .886-.287.886-.814h.023V2.162c0-.526-.239-.814-.885-.814-.647 0-.886.288-.886.814v1.269z"/>
        <path id="u" d="M3.183.038L2.25 1.475 1.292.038H.118l1.485 2.347L.071 4.778h1.22l.958-1.484.934 1.484h1.221L2.872 2.385 4.356.038z"/>
        <path id="w" d="M.363 4.778H1.56V.038H.363z"/>
        <path id="y" d="M1.157 1.744v.67H.39v.934h.766v3.807h1.197V3.372h.814l1.197 3.806h.407l-.599 1.916H5.3l.622-1.916 1.508-4.74H6.28L5.18 6.03 4.102 2.438H2.378V1.84c0-.36.072-.575.527-.575.191 0 .455.025.67.072l.12-.91a3.457 3.457 0 0 0-1.03-.143c-1.053 0-1.508.478-1.508 1.46z"/>
    </defs>
    <g fill="none" fill-rule="evenodd">
        <g>
            <mask id="b" fill="#fff">
                <use xlink:href="#a"/>
            </mask>
            <path fill="#F2F2F2" d="M100 50c0 27.614-22.386 50-50 50S0 77.614 0 50 22.386 0 50 0s50 22.386 50 50" mask="url(#b)"/>
            <path fill="#CECECE" d="M64.436 32.867H15.548c-.552 0-1.003.364-1.003.808v25.237c0 .445.45.809 1.003.809h48.888c.552 0 1.003-.364 1.003-.809V33.675c0-.444-.451-.808-1.003-.808"/>
            <path fill="#DD3E13" d="M25.104 54.996L25.02 55l-.13.002-.094.003a3.092 3.092 0 0 0-.172.01l-.048.002-.143.01-.095.008-.101.01-.116.012-.114.015h-.003l-.116.015-.092.014-.122.019-.11.019-.061.01c-.06.01-.119.022-.177.035l-.024.005a9.208 9.208 0 0 0-4.514 2.367c-.446.427-.84.885-1.182 1.371h12.242l1.396-1.67a9.223 9.223 0 0 0-5.178-2.218l-.02-.001c-.066-.007-.132-.013-.199-.017l-.047-.004-.164-.009-.14-.006L25.41 55c-.102-.003-.205-.003-.307-.003"/>
            <path fill="#DD3E13" d="M19.812 58.887l-.039.04h10.075l.327-.393a7.599 7.599 0 0 0-10.363.353"/>
            <path fill="#DD3E13" d="M20.486 58.926a7.101 7.101 0 0 1 9.373-.015l-.012.015h-9.36z"/>
            <mask id="d" fill="#fff">
                <use xlink:href="#c"/>
            </mask>
            <path fill="#344453" d="M12.866 63.067h1.423v-2.933h-1.423z" mask="url(#d)"/>
            <path fill="#1A2A3A" d="M70.885 64.036H14.53a.435.435 0 0 1-.434-.434V59.36c0-.238.195-.434.434-.434h56.355c.239 0 .433.196.433.434v4.242c0 .24-.194.434-.433.434" mask="url(#d)"/>
            <path fill="#FFF" d="M66.78 34.657l13.103-.177 7.111 12.735-.354 8.76H67.973z" mask="url(#d)"/>
            <path fill="#1A2A3A" d="M70.885 64.036H14.53a.435.435 0 0 1-.434-.434v-2.12h57.222v2.12c0 .24-.195.434-.433.434" mask="url(#d)"/>
            <path fill="#CECECE" d="M67.994 47.809l-.101-12.38c0-.39.088-.632.379-.66h10.227c.635-.008.855.045 1.277.872l6.542 12.168M65.562 34.037l-.124 29.988 13.037.012h9.627a.413.413 0 0 0 .412-.413V47.942l-7.59-14.051c-.378-.634-.44-.971-1.862-1.024H67.024c-.873.015-1.356.41-1.462 1.17" mask="url(#d)"/>
            <path fill="#1A2A3A" d="M88.514 57.588v6.036a.413.413 0 0 1-.412.413l-.015-.002h-9.612l-13.036-.01.024-6.437h23.051z" mask="url(#d)"/>
            <path fill="#B5B5B5" d="M71.448 54.996l.086.003.129.002.094.003c.057.002.115.005.171.01l.05.002.143.01.095.008.1.01.117.012.113.015h.003l.116.015.093.014.122.019.108.019.063.01c.058.01.117.022.176.035l.024.005a9.203 9.203 0 0 1 4.514 2.367 9.231 9.231 0 0 1 2.865 6.48l-9.043-.005-.005.006h-9.467c.109-4.716 3.744-8.56 8.373-8.998l.019-.001c.066-.007.133-.013.2-.017l.047-.004.162-.009.142-.006.084-.002c.102-.003.204-.003.306-.003" mask="url(#d)"/>
            <path fill="#B5B5B5" d="M66 58.883a7.574 7.574 0 0 0-2.222 5.153H78.96a7.57 7.57 0 0 0-2.22-5.153 7.598 7.598 0 0 0-10.742 0" mask="url(#d)"/>
            <path fill="#344453" d="M66.345 59.233a7.1 7.1 0 0 0 0 10.043 7.1 7.1 0 0 0 10.043 0 7.1 7.1 0 0 0 0-10.043 7.1 7.1 0 0 0-10.043 0" mask="url(#d)"/>
            <path fill="#1A2A3A" d="M73.695 66.583a3.293 3.293 0 1 0-4.658-4.658l4.658 4.658z" mask="url(#d)"/>
            <path fill="#1A2A3A" d="M66.345 59.233a7.1 7.1 0 0 0 0 10.043 7.1 7.1 0 0 0 10.043 0L66.345 59.233z" mask="url(#d)"/>
            <path fill="#344453" d="M69.037 61.925a3.295 3.295 0 0 0 4.658 4.658l-4.658-4.658z" mask="url(#d)"/>
            <path fill="#AAD3EF" d="M69.885 62.777a2.095 2.095 0 1 0 2.963 2.964l-2.963-2.964z" mask="url(#d)"/>
            <path fill="#E1EFFA" d="M72.848 65.74a2.096 2.096 0 0 0-2.963-2.963l2.963 2.964z" mask="url(#d)"/>
            <path fill="#1A2A3A" d="M70.503 63.395a1.22 1.22 0 1 0 1.727 1.728l-1.727-1.728z" mask="url(#d)"/>
            <path fill="#344453" d="M72.23 65.123a1.221 1.221 0 1 0-1.727-1.728l1.727 1.728z" mask="url(#d)"/>
            <path fill="#B5B5B5" d="M25.104 54.996L25.02 55l-.13.002-.094.003a3.092 3.092 0 0 0-.172.01l-.048.002-.143.01-.095.008-.101.01-.116.012-.114.015h-.003l-.116.015-.092.014-.122.019-.11.019-.061.01c-.06.01-.119.022-.177.035l-.024.005a9.208 9.208 0 0 0-4.514 2.367 9.233 9.233 0 0 0-2.865 6.48l9.043-.005.005.006h9.468c-.109-4.716-3.745-8.56-8.373-8.998l-.02-.001c-.066-.007-.132-.013-.199-.017l-.047-.004-.164-.009-.14-.006L25.41 55c-.102-.003-.205-.003-.307-.003" mask="url(#d)"/>
            <path fill="#B5B5B5" d="M19.812 58.887a7.571 7.571 0 0 0-2.221 5.149h15.183a7.57 7.57 0 0 0-2.22-5.149 7.597 7.597 0 0 0-10.742 0" mask="url(#d)"/>
            <path fill="#344453" d="M30.203 69.276A7.102 7.102 0 1 1 20.16 59.232a7.102 7.102 0 0 1 10.044 10.044" mask="url(#d)"/>
            <path fill="#1A2A3A" d="M30.203 69.276A7.102 7.102 0 0 1 20.16 59.233l10.044 10.043z" mask="url(#d)"/>
            <path fill="#1A2A3A" d="M22.853 61.925a3.293 3.293 0 0 1 4.657 4.658l-4.657-4.658z" mask="url(#d)"/>
            <path fill="#344453" d="M27.51 66.583a3.294 3.294 0 0 1-4.657-4.658l4.657 4.658z" mask="url(#d)"/>
            <path fill="#AAD3EF" d="M23.7 62.777a2.097 2.097 0 0 0 2.965 2.964L23.7 62.777z" mask="url(#d)"/>
            <path fill="#E1EFFA" d="M26.665 65.74a2.097 2.097 0 0 0-2.965-2.963l2.965 2.964z" mask="url(#d)"/>
            <path fill="#1A2A3A" d="M24.319 63.395a1.221 1.221 0 0 0 1.727 1.728l-1.727-1.728z" mask="url(#d)"/>
            <path fill="#344453" d="M26.046 65.123a1.221 1.221 0 0 0-1.727-1.728l1.727 1.728z" mask="url(#d)"/>
        </g>
        <g transform="translate(50.4 42)">
            <mask id="f" fill="#fff">
                <use xlink:href="#e"/>
            </mask>
            <path fill="#CC003D" d="M-.858 2.941h3.591V-.818H-.858z" mask="url(#f)"/>
        </g>
        <g transform="translate(25.6 41.2)">
            <mask id="h" fill="#fff">
                <use xlink:href="#g"/>
            </mask>
            <path fill="#CC003D" d="M-.812 10.947H9.53V-.903H-.812z" mask="url(#h)"/>
        </g>
        <g transform="translate(30 44.4)">
            <mask id="j" fill="#fff">
                <use xlink:href="#i"/>
            </mask>
            <path fill="#CC003D" d="M-1.118 6.359h5.123V-.895h-5.123z" mask="url(#j)"/>
        </g>
        <g transform="translate(29.6 42.8)">
            <mask id="l" fill="#fff">
                <use xlink:href="#k"/>
            </mask>
            <path fill="#B2B2B2" d="M-.838 4.511h5.147v-5.625H-.838z" mask="url(#l)"/>
        </g>
        <g transform="translate(27.2 42.8)">
            <mask id="n" fill="#fff">
                <use xlink:href="#m"/>
            </mask>
            <path fill="#DADADA" d="M-1.167 4.535h5.123v-5.65h-5.123z" mask="url(#n)"/>
        </g>
        <g transform="translate(26.8 44.4)">
            <mask id="p" fill="#fff">
                <use xlink:href="#o"/>
            </mask>
            <path fill="#CC003D" d="M-.863 6.359H4.26V-.895H-.863z" mask="url(#p)"/>
        </g>
        <g transform="translate(36.8 42.4)">
            <mask id="r" fill="#fff">
                <use xlink:href="#q"/>
            </mask>
            <path fill="#2F3033" d="M-.88 7.976h6.895V-.906H-.88z" mask="url(#r)"/>
        </g>
        <g transform="translate(42 44)">
            <mask id="t" fill="#fff">
                <use xlink:href="#s"/>
            </mask>
            <path fill="#2F3033" d="M-1.148 6.471h6.512V-.854h-6.512z" mask="url(#t)"/>
        </g>
        <g transform="translate(46 44.4)">
            <mask id="v" fill="#fff">
                <use xlink:href="#u"/>
            </mask>
            <path fill="#2F3033" d="M-1.126 5.976H5.6v-7.134h-6.727z" mask="url(#v)"/>
        </g>
        <g transform="translate(50.4 44.4)">
            <mask id="x" fill="#fff">
                <use xlink:href="#w"/>
            </mask>
            <path fill="#2F3033" d="M-.834 5.976h3.591v-7.134H-.834z" mask="url(#x)"/>
        </g>
        <g transform="translate(52 42)">
            <mask id="z" fill="#fff">
                <use xlink:href="#y"/>
            </mask>
            <path fill="#2F3033" d="M-.806 10.291h9.432V-.913H-.806z" mask="url(#z)"/>
        </g>
    </g>
</svg>
