<?xml version="1.0" standalone="no"?>
<!DOCTYPE svg PUBLIC "-//W3C//DTD SVG 20010904//EN"
 "http://www.w3.org/TR/2001/REC-SVG-20010904/DTD/svg10.dtd">
<svg version="1.0" xmlns="http://www.w3.org/2000/svg"
 width="100.000000pt" height="100.000000pt" viewBox="0 0 100.000000 100.000000"
 preserveAspectRatio="xMidYMid meet">
<metadata>
Created by potrace 1.11, written by Peter Selinger 2001-2013
</metadata>
<g transform="translate(0.000000,100.000000) scale(0.100000,-0.100000)"
fill="#000000" stroke="none">
<path d="M470 990 c0 -5 -7 -10 -15 -10 -8 0 -15 -5 -15 -11 0 -5 -4 -8 -9 -5
-5 3 -20 -5 -33 -17 -14 -13 -33 -22 -42 -21 -9 1 -16 -2 -16 -7 0 -10 -61
-44 -72 -41 -5 1 -8 -2 -8 -7 0 -5 -27 -24 -60 -43 -33 -18 -60 -36 -60 -41 0
-4 -4 -6 -8 -3 -5 3 -18 -3 -29 -14 -12 -10 -24 -16 -27 -13 -3 4 -6 -109 -6
-251 0 -169 3 -255 10 -251 5 3 10 1 10 -5 0 -6 5 -8 10 -5 6 3 10 1 10 -4 0
-6 9 -11 20 -11 11 0 20 -7 20 -15 0 -8 3 -15 8 -14 15 2 52 -14 52 -23 0 -5
5 -6 10 -3 5 3 10 2 10 -3 0 -5 25 -21 55 -36 30 -14 55 -31 55 -36 0 -6 3 -9
8 -8 12 3 62 -24 62 -34 0 -4 6 -8 13 -8 7 0 18 -5 25 -12 14 -14 85 -21 77
-9 -2 5 13 16 35 26 22 10 45 24 51 31 6 8 15 11 20 8 5 -3 12 2 15 10 3 9 13
16 20 16 8 0 20 5 27 11 11 10 137 86 192 117 18 9 22 19 19 37 -3 16 0 25 8
25 10 0 10 2 -1 9 -9 6 -10 11 -2 15 6 4 9 12 6 17 -12 18 -12 159 -1 159 6 0
5 4 -3 9 -9 6 -10 11 -2 15 6 4 8 12 5 18 -4 6 -7 53 -7 105 0 51 -3 93 -8 93
-5 0 -9 7 -9 16 0 8 -4 12 -10 9 -5 -3 -10 -1 -10 4 0 6 -4 10 -9 9 -5 -2 -18
3 -28 9 -75 51 -93 62 -93 57 0 -7 -63 37 -72 51 -4 5 -8 6 -8 2 0 -5 -15 2
-32 15 -18 13 -35 22 -38 21 -3 0 -4 3 -2 9 1 5 -2 7 -7 4 -5 -4 -16 1 -25 10
-9 8 -20 12 -26 9 -6 -3 -13 1 -16 9 -7 17 -44 22 -44 6z m50 -76 c0 6 11 -2
44 -31 8 -7 16 -9 20 -6 3 3 8 -1 12 -10 3 -9 12 -13 20 -10 8 3 14 1 14 -5 0
-5 14 -15 30 -22 17 -7 30 -16 30 -21 0 -5 3 -9 8 -8 17 3 51 -14 46 -22 -3
-5 2 -9 10 -9 9 0 16 -5 16 -11 0 -5 4 -8 9 -4 5 3 15 -1 23 -8 7 -7 20 -16
29 -19 13 -5 16 -23 17 -92 0 -46 3 -90 7 -95 3 -6 3 -11 -2 -11 -4 0 -7 -51
-7 -112 1 -88 -2 -117 -14 -130 -8 -10 -19 -15 -23 -12 -5 3 -9 0 -9 -7 0 -7
-3 -10 -6 -6 -3 3 -14 -3 -25 -14 -10 -10 -26 -19 -34 -19 -8 0 -15 -4 -15
-10 0 -5 -5 -10 -12 -10 -6 0 -23 -10 -37 -22 -21 -19 -23 -20 -11 -3 14 19
13 19 -10 -1 -35 -29 -100 -67 -100 -58 0 4 -8 -2 -17 -12 -25 -27 -49 -28
-79 -5 -15 12 -30 18 -35 15 -5 -3 -9 -1 -9 3 0 5 -17 17 -37 28 -21 11 -40
22 -43 26 -3 3 -25 16 -50 30 -25 13 -47 26 -50 29 -3 3 -21 14 -40 25 -44 24
-72 57 -60 69 6 6 5 16 -3 25 -9 12 -9 13 0 7 8 -4 13 -1 13 9 0 10 -5 13 -12
9 -7 -5 -8 -3 -3 7 15 23 17 82 4 73 -8 -5 -9 -3 -3 7 11 19 13 78 2 85 -4 3
-5 11 -1 17 11 18 10 70 -2 86 -8 11 -7 13 4 7 10 -7 12 -3 6 14 -5 17 0 28
23 50 17 15 33 25 36 22 3 -3 6 0 6 6 0 7 3 11 8 10 9 -3 106 53 110 64 2 5 8
6 13 2 5 -3 9 -1 9 5 0 9 30 23 40 18 3 -1 19 10 35 25 16 15 32 25 37 22 4
-3 8 0 8 6 0 6 4 9 9 5 5 -3 13 -1 16 5 5 8 11 7 21 -1 8 -6 14 -8 14 -5z"/>
<path d="M438 828 c-21 -11 -38 -24 -38 -29 0 -6 -4 -7 -10 -4 -5 3 -10 1 -10
-6 0 -7 -3 -9 -6 -6 -4 3 -18 -2 -32 -13 -13 -11 -29 -17 -35 -13 -5 3 -7 2
-4 -4 6 -9 -34 -35 -58 -38 -5 0 -9 -6 -8 -13 2 -7 -2 -11 -8 -9 -6 1 -14 -4
-17 -12 -3 -8 0 -11 7 -7 6 4 11 3 11 -1 0 -5 22 -19 48 -31 27 -13 61 -34 76
-48 15 -15 34 -23 42 -20 8 3 12 2 9 -4 -7 -11 29 -32 39 -23 3 4 13 -2 20
-13 8 -10 18 -16 22 -12 4 4 13 3 21 -4 11 -9 12 -7 7 7 -5 12 -4 16 4 11 6
-3 15 2 21 11 8 14 11 15 11 3 1 -12 4 -11 15 3 7 10 30 27 49 38 29 15 36 16
36 5 0 -8 -20 -24 -45 -36 -25 -12 -43 -26 -40 -31 4 -5 0 -7 -7 -4 -16 5 -51
-23 -61 -48 -4 -10 -12 -15 -18 -11 -8 5 -8 9 1 14 8 5 7 9 -4 13 -9 4 -15 12
-14 19 2 8 -7 12 -24 12 -15 -1 -25 3 -22 7 3 5 -3 12 -13 16 -10 4 -36 18
-58 32 -22 14 -43 24 -47 23 -5 -1 -8 5 -8 14 0 9 -6 14 -12 11 -7 -2 -20 1
-28 8 -8 7 -24 15 -35 19 -19 6 -20 1 -20 -157 0 -98 4 -166 10 -172 16 -17
129 -80 138 -77 4 1 7 -5 7 -13 0 -9 6 -12 17 -8 10 4 14 2 10 -4 -6 -10 10
-18 37 -21 5 0 13 -7 18 -16 11 -20 25 -20 44 -1 10 10 11 15 3 15 -9 0 -8 4
1 15 7 8 8 15 3 15 -5 0 -10 7 -10 15 0 8 4 12 9 9 11 -7 10 7 -2 26 -6 9 -5
17 3 22 9 6 9 8 -1 8 -10 0 -10 5 -2 20 6 11 7 20 2 20 -5 0 -9 7 -9 15 0 8 4
12 9 9 11 -7 10 7 -2 26 -6 9 -5 17 3 22 21 13 30 9 16 -8 -8 -9 -9 -18 -3
-22 11 -8 10 -37 -1 -64 -5 -12 -3 -18 5 -18 9 0 9 -4 -1 -17 -11 -13 -11 -17
-2 -20 8 -3 10 -11 5 -21 -6 -14 -8 -50 -3 -86 0 -5 8 -3 16 4 8 7 15 9 15 6
0 -4 20 7 44 24 25 16 49 30 55 30 6 0 11 5 11 11 0 6 7 8 16 5 8 -3 13 -2 10
2 -2 4 10 14 27 22 18 8 37 18 42 22 6 5 20 17 33 27 19 16 22 27 20 80 -2 36
1 61 7 61 5 0 3 5 -5 10 -12 8 -13 11 -1 19 9 6 10 11 2 15 -6 4 -11 12 -11
17 0 6 6 7 13 3 9 -6 9 -4 -1 8 -10 12 -10 18 -1 23 8 6 7 10 -2 16 -12 8 -12
10 0 18 9 6 10 11 2 15 -6 4 -11 12 -11 17 0 6 4 8 9 5 5 -4 7 3 4 14 -3 11
-10 20 -15 20 -5 0 -6 -5 -2 -12 4 -7 3 -8 -5 -4 -15 10 -53 -3 -46 -15 4 -5
-3 -9 -14 -9 -12 0 -21 -4 -21 -9 0 -5 -7 -11 -15 -15 -11 -4 -15 1 -15 17 0
18 2 19 10 7 6 -10 10 -11 10 -2 0 6 7 12 16 12 8 0 12 5 9 10 -3 6 -1 11 4
11 6 1 16 2 21 3 6 0 15 7 19 15 5 7 14 10 21 6 8 -5 8 -1 -1 13 -7 12 -15 20
-18 20 -11 -3 -61 25 -61 34 0 4 -5 8 -12 8 -6 0 -23 10 -36 23 -14 12 -21 15
-17 7 5 -8 -11 0 -35 18 -24 17 -50 32 -57 32 -7 0 -13 4 -13 8 0 15 -45 9
-82 -10z m-115 -306 c4 -1 20 -9 34 -20 31 -22 24 -49 -8 -32 -11 6 -17 15
-14 20 3 5 -3 7 -13 5 -13 -2 -23 5 -31 21 -10 22 -9 24 7 15 9 -5 21 -9 25
-9z m177 -82 c-20 -13 -33 -13 -25 0 3 6 14 10 23 10 15 0 15 -2 2 -10z"/>
</g>
</svg>
