<svg viewBox="0 0 180 46" xmlns="http://www.w3.org/2000/svg"><g fill="none" stroke="#999" stroke-miterlimit="10" stroke-width="2"><path d="m146.6 44.5h-113.9v-43h113.9v34.7zm-113.9-7.7h113.9"/><path d="m85.1 21.3h-39.7c0-5.4 4.4-9.8 9.8-9.8h20c5.5 0 9.9 4.4 9.9 9.8zm49.3 0h-39.7c0-5.4 4.4-9.8 9.8-9.8h20c5.5 0 9.9 4.4 9.9 9.8z"/><path d="m142.1 36.8h-104.8v-3.9c0-6.4 5.2-11.6 11.6-11.6h81.5c6.4 0 11.6 5.2 11.6 11.6v3.9zm-140.9-13.8h26.2v21.5h-26.2zm.4 10.7h25.4m-18.9-11.9h11.7m-5.4-13.5v14m-.8-19.7-1.7 3.4 6.2 6 5.3-7.5zm138.6 20.4h26.2v21.5h-26.2zm25.8 10.7h-25.4m13.1-20.5v9.2m-2.1-7.5-2.6 7.3m7-9v9.2m2.4-9.2v9.2"/><path d="m166.9 28.3h-3.1zm0 10.8h-3.1z"/><path d="m15.8 28.3h-3zm0 10.8h-3z"/></g></svg>