<svg viewBox="0 0 159 91" xmlns="http://www.w3.org/2000/svg"><g fill="none" stroke="#999" stroke-linejoin="round" stroke-width="2"><g stroke-linecap="round" transform="translate(1 5)"><path d="m0 23.9v60"/><path d="m76.2 23.9v60"/><path d="m.6 39.5h74.9"/><path d="m.6 68.7h74.9"/><path d="m13.4 40v28.6"/><path d="m29.9 40v28.6"/><path d="m45.3 40v28.6"/><path d="m61.8 40v28.6"/><path d="m48.4 11.4v8.9"/><path d="m33.8 11.3h29.3"/><path d="m57.7 11.4v9.4"/><path d="m39.2 11.4v9.4"/><path d="m48.4.7v12.5"/></g><path d="m.4 8.2c0-4.2 2.2-7.6 5-7.6h47.7c2.8 0 5 3.4 5 7.6v79.8h-6.2l-2.6-11.4h-40.1l-2.5 11.5h-6.3z" transform="translate(99 1)"/><path d="m153.2 21.1v13.7m-3.1-13.7v13.7m-3.1-13.7v13.7m-3.1-13.7v13.7m-3.1-13.7v13.7m-3-13.7-3 13.7m-31.7 20.7v13.6m3.1-13.6v13.6m3.2-13.6v13.6m3.1-13.6v13.6m3.1-13.6v13.6m3-13.6 3 13.6"/><g stroke-linecap="round"><circle cx="40.2" cy="29.2" r="3.1"/><circle cx="49.4" cy="29.2" r="3.1"/><circle cx="58.7" cy="29.2" r="3.1"/></g><path d="m99.5 69.1h57.6m-57.6-25.3h57.6m-57.6-9h57.6m-57.6-25.5h57.6"/></g></svg>