<svg viewBox="0 0 160 80" xmlns="http://www.w3.org/2000/svg"><g fill="none" stroke="#999" stroke-linecap="round" stroke-width="2"><g transform="translate(.797 37.462)"><path d="m52.5 10.4v-.1c0-1.9-1.7-3.4-3.8-3.4h-44.7c-2.1 0-3.8 1.5-3.8 3.4v27.6c0 1.9 1.7 3.4 3.8 3.4h44.7c2.1 0 3.8-1.5 3.8-3.4z"/><path d="m32.6 6.3v-2.6c0-.4-.4-.8-.9-.8h-10.6c-.5 0-.9.4-.9.8v2.7"/><path d="m13.2 40.9v-34"/><path d="m38.6 40.9v-34"/></g><g transform="translate(66.793 1)"><path d="m.3 76.4v-75.7"/><path d="m30.3 76.4v-75.7"/><path d="m.9 9.9h28.5"/><path d="m.6 23h28.5"/><path d="m.9 36.5h28.5"/><path d="m.9 50.2h28.5"/><path d="m.9 64.2h28.5"/></g><g transform="translate(108.904 45.983)"><path d="m49.3 7.9c0-.4-48.3-.4-48.3 0v19.1c0 3.1 2.8 5.7 6.3 5.7h35.7c3.5 0 6.3-2.6 6.3-5.7z"/><path d="m17.5 7.6v-3.8c0-2.1 1.9-3.8 4.2-3.8h6.3c2.3 0 4.2 1.7 4.2 3.8v3.8"/><path d="m33.6 20.7 2.5-2h4.9c-.9-2.2-3.2-3.8-5.9-3.8s-5 1.6-5.9 3.8h-9.2c-.9-2.2-3.2-3.8-5.9-3.8s-5 1.9-5.9 3.8h4.8l2.5 2-2.5 1.8h-4.8c.9 1.9 3.2 3.8 5.9 3.8s5-1.6 5.9-3.8h9.2c.9 2.2 3.2 3.8 5.9 3.8s5-1.6 5.9-3.8h-4.9z"/></g></g></svg>