<svg viewBox="0 0 136 84" xmlns="http://www.w3.org/2000/svg"><g fill="none" stroke="#999" stroke-miterlimit="10" stroke-width="2"><path d="m93 5.2-43.6 13c0 5.1 85.7 5.1 85.7 0zm-19.7 15.8 19-15.2m25.6 15-24.5-15m-.4-.6-1.8-3.7-50.8 10.6" stroke-linecap="square"/><path d="m40.2 1.5v79.6" stroke-linecap="round"/><path d="m26.9 52.3v.1c0 6.2-5.1 11.3-11.3 11.3-6.3 0-11.3-5.1-11.3-11.3v-.1z" stroke-linecap="square"/><path d="m20.3 63.2 5.3 18.9" stroke-linecap="round"/><path d="m10.1 62.8-3.6 14.4m16.5 0h-15.9" stroke-linecap="square"/><ellipse cx="4.4" cy="79.9" rx="2.8" ry="2.8" stroke-linecap="square"/><path d="m28.8 53.7h-1.9m-23.2 0h-1.7" stroke-linecap="square"/><g stroke-linecap="round"><path d="m109.4 78.4-6.5-5.8 13.5-.5 11.1 8.8m-26.9-11.5 13.1-18.6 18.6-.4-15.9 21.7-38.1 1.4-21.8-2.3z" stroke-linejoin="round"/><path d="m119.7 68.1 1.7 7.3h-15.4" stroke-linejoin="round"/><path d="m62.8 72.7-3.7 8.7m17.4-7.9-2.9 8.2"/><path d="m34.3 81.3h12.1"/></g></g></svg>