<svg viewBox="0 0 140 89" xmlns="http://www.w3.org/2000/svg"><g fill="none" stroke="#999" stroke-width="2"><path d="m100.4 86.7h-96.3c-1.4 0-2.5-1.1-2.5-2.5v-29.8c0-1.4 1.1-2.5 2.5-2.5h96.3c1.4 0 2.5 1.1 2.5 2.5v29.8c0 1.4-1.1 2.5-2.5 2.5zm.5-63.3h-26.1c-1.2 0-2.1-1-2.1-2.1v-17.9c0-1.2 1-2.1 2.1-2.1h26.2c1.2 0 2.1 1 2.1 2.1v17.9c0 1.2-1 2.1-2.2 2.1zm35.4 63.3h-26.9c-1.2 0-2.2-1-2.2-2.2v-81c0-1.2 1-2.2 2.2-2.2h26.9c1.2 0 2.2 1 2.2 2.2v81c0 1.2-1 2.2-2.2 2.2zm-97.6-85.4-3.6 22h34.6l-3.6-22z" stroke-linecap="square" stroke-miterlimit="5"/><path d="m72.6 52v34.7m.1-25.6h30.1m-30 8.6h29.9m-29.9 8.5h29.9m-72.5-26.3v34.3m-14.3-34.3v34.3" stroke-linecap="square" stroke-linejoin="round" stroke-miterlimit="5"/><g stroke-miterlimit="10"><path d="m35.9 58.1h31v24h-31z" stroke-linecap="square" stroke-linejoin="round"/><path d="m111.4 28.4v52.4m0-74.5v12.8" stroke-linecap="round"/><path d="m108.1 23.4h30.4" stroke-linecap="square"/><path d="m35.9 64.2h30.9" stroke-linecap="square" stroke-linejoin="round"/></g><path d="m86.1 18.1h3.5" stroke-linecap="round" stroke-miterlimit="5"/><path d="m29.8 23.4h-26.1c-1.2 0-2.1-1-2.1-2.1v-17.9c0-1.2 1-2.1 2.1-2.1h26.2c1.2 0 2.1 1 2.1 2.1v17.9c0 1.2-1 2.1-2.2 2.1z" stroke-linecap="square" stroke-miterlimit="5"/><path d="m15 18.1h3.5m68.7 38h1.5m-1.5 9.3h1.5m-1.5 8.5h1.5m-1.5 8.8h1.5" stroke-linecap="round" stroke-miterlimit="5"/></g></svg>