<svg viewBox="0 0 160 63" xmlns="http://www.w3.org/2000/svg"><g fill="none" stroke="#999" stroke-linecap="round" stroke-linejoin="round" stroke-width="2"><g transform="translate(.8 4.458)"><path d="m45.4 51.5c0 2.7-2.1 4.9-4.7 4.9h-35.4c-2.6 0-4.7-2.2-4.7-4.9v-46.2c0-2.7 2.1-4.9 4.7-4.9h35.4c2.6 0 4.7 2.2 4.7 4.9z"/><path d="m.5 15h44.8"/><ellipse cx="22.9" cy="35.7" rx="13" ry="13.4"/><ellipse cx="22.9" cy="35.7" rx="9.2" ry="9.5"/><path d="m6.4 5.3h14.2l-2.4 4.9h-9.4z"/></g><g transform="translate(59.3 14.541)"><path d="m6.1 44.5h20.3"/><path d="m6.1 44.6-3.4-39.7"/><path d="m26.4 44.6 3.4-39.7"/><path d="m.2 4.7h32.1"/><path d="m11.6 1h9.3v3.4h-9.3z"/></g><g transform="translate(101.6 .791)"><path d="m18.7 58.2h-15c-7.3-20.5 0-35.8 11.2-35.8h9.9v27.6"/><ellipse cx="23.4" cy="55.5" rx="5.4" ry="5.5"/><path d="m13.9 17h10.8v5.5h-10.8z"/><path d="m19.3 17v-2.8c0-7.6 6-13.8 13.5-13.8s13.5 6.2 13.5 13.8v38.5"/><path d="m38.2 52.7h16.2l2.7 8.3h-21.6z"/><path d="m2.1 33h22.7"/></g></g></svg>