<svg viewBox="0 0 112 94" xmlns="http://www.w3.org/2000/svg"><g fill="none" stroke="#999" stroke-linecap="square" stroke-miterlimit="10" stroke-width="2"><path d="m18.4 2.3-15.6 7.6 5.6 25.9"/><path d="m15.6 14 14.5-6-8-6.2-5.2 2.3zm94.2 26.7v36.1h-26.2c-5.1 0-9.2-4.2-9.2-9.4v-26.7m35.4-.3v51.6m-108.2 0v-52.5h14.5m21 25v-13.7m-13 33.5h26m4.1-14.2h-34.2c-1.5 0-2.7-1.2-2.7-2.7v-.1c0-1.5 1.2-2.7 2.7-2.7h34.2c1.5 0 2.7 1.2 2.7 2.7v.1c.1 1.5-1.2 2.7-2.7 2.7zm20.4-16.8h34.3m-34.3 11.2h34.3m-95.6-27.1h-9.8m49.7 12.6h-32.2c-2.5 0-4.6-2-4.6-4.6v-17.3c0-2.5 2-4.6 4.6-4.6h32.1c2.5 0 4.6 2 4.6 4.6v17.4c0 2.5-2 4.5-4.5 4.5zm31.1-10.4 2.9-5h8.1l2.7 5m7.9-5h-29.8c-1.4 0-2.5-1.1-2.5-2.5v-20.3c0-1.4 1.1-2.5 2.5-2.5h29.8c1.4 0 2.5 1.1 2.5 2.5v20.3c0 1.4-1.1 2.5-2.5 2.5zm-32.2-5.7h34.7m-71.3 55.2v-11.9m21.1-31.8h51.6"/><ellipse cx="24.6" cy="89.7" rx="3.2" ry="3.3"/><ellipse cx="37.1" cy="89.7" rx="3.2" ry="3.3"/><ellipse cx="49.6" cy="89.7" rx="3.2" ry="3.3"/></g></svg>