<svg xmlns="http://www.w3.org/2000/svg" width="140" height="41" viewBox="0 0 140 41">
    <g fill="none" fill-rule="nonzero">
        <path fill="#CC003D" d="M31 28.2l-14.3 8.5-14.4-8.5v-17l14.3-8.5L31 11.2v17zM16.6 0L0 9.9v19.7l16.6 9.9 16.6-9.9V9.9L16.6 0z"/>
        <path fill="#CC003D" d="M28.5 13.4l-11.4 6.7v13.6l11.4-6.8z"/>
        <path fill="#B2B2B2" d="M16.6 5.8v13.5l11.5-6.7z"/>
        <path fill="#DADADA" d="M16.6 5.8v13.6L5.2 12.6z"/>
        <path fill="#CC003D" d="M11.7 21.5L9 19.9c-.3-.2-.6-.7-.6-1.1 0-.4.3-.6.6-.4l2.7 1.6c.4.2.7.7.6 1.1.1.5-.2.6-.6.4zm-6.9-8.1v13.5l11.4 6.8V20.1L4.8 13.4z"/>
        <path fill="#FFF" d="M103.4 3.7h5v5.7h-5zM60.1 25.2c0 2-1 2.6-3.3 2.6h-5.2v-7.4h5.7c2 0 2.8.9 2.8 2.7v2.1zm-8.5-16h4.9c1.9 0 2.7.7 2.7 2.2v2.4c0 1.6-.7 2.5-2.7 2.5h-4.9V9.2zm9.7 8.8c2.1-.9 3-2.2 3-4.4v-2.8c0-3.7-2.1-5.8-7.2-5.8H46.5v27.1h11.4c4.9 0 7.4-2.4 7.4-6.2V23c-.1-2.7-1.5-4.5-4-5zM79.3 24.8c0 2.2-1 3.4-3.7 3.4S72 27.1 72 24.8v-5.3c0-2.2 1-3.4 3.7-3.4s3.7 1.2 3.7 3.4v5.3h-.1zm5-5.1c0-4.1-1.8-7.8-8.6-7.8s-8.6 3.7-8.6 7.8v5c0 4.1 1.8 7.8 8.6 7.8s8.6-3.7 8.6-7.8v-5z"/>
        <path fill="#FFF" d="M101.8 12.3h-4.9l-3.9 6-4-6h-4.9l6.2 9.8-6.4 10H89l4-6.2 3.9 6.2h5.1l-6.4-10zM103.5 12.3h5v19.8h-5zM134.9 12.3l-4.6 15-4.5-15h-7.2V9.8c0-1.5.3-2.4 2.2-2.4.8 0 1.9.1 2.8.3l.5-3.8c-1.3-.4-2.7-.6-4.3-.6-4.4 0-6.3 2-6.3 6.1v2.8h-3.2v3.9h3.2V32h5V16.2h3.4l5 15.9h1.7l-2.5 8h4.7l2.6-8 6.3-19.8h-4.8z"/>
    </g>
</svg>
