<svg xmlns="http://www.w3.org/2000/svg" xmlns:xlink="http://www.w3.org/1999/xlink" width="100" height="100" viewBox="0 0 100 100">
    <defs>
        <path id="a" d="M50 0H0v100h100V0z"/>
    </defs>
    <g fill="none" fill-rule="evenodd">
        <g>
            <mask id="b" fill="#fff">
                <use xlink:href="#a"/>
            </mask>
            <path fill="#F2F2F2" d="M100 50c0 27.614-22.386 50-50 50S0 77.614 0 50 22.386 0 50 0s50 22.386 50 50" mask="url(#b)"/>
        </g>
        <path fill="#FFE2A1" d="M40.685 40.828l28.11-10.231 10.584 29.08-28.11 10.231z"/>
        <path fill="#344453" d="M50.374 74.926l32.487-11.824c.44-.16.668-.65.508-1.09l-.926-2.545a.853.853 0 0 0-1.09-.509L48.866 70.783c-.44.16-.67.65-.51 1.09l.927 2.545c.16.44.651.668 1.091.508"/>
        <path fill="#1A2A3A" d="M50.374 74.926l32.487-11.824c.44-.16.668-.65.508-1.09l-.463-1.273-34.085 12.406.462 1.273c.16.44.651.668 1.091.508"/>
        <path fill="#333" d="M27.474 32.444l8.17-2.973c.439-.16.668-.65.508-1.09l-.927-2.546a.854.854 0 0 0-1.09-.508l-8.169 2.974 1.508 4.143z"/>
        <path fill="#1F354A" d="M51.38 70.21L35.226 25.832a.853.853 0 0 0-1.09-.51l-2.546.928a.853.853 0 0 0-.508 1.09l16.153 44.376c.16.44.65.669 1.09.509l2.545-.926c.44-.16.668-.651.508-1.09"/>
        <path fill="#DD3E13" d="M53.48 35.751l2.942-1.07 2.01 5.522-.743-.065-.473.483-.965-.179-.761.832z"/>
        <path fill="#CC003D" d="M14.337 38.378l16.875-6.141a.714.714 0 0 0 .425-.913l-1.762-4.841a.714.714 0 0 0-.912-.426L12.088 32.2a.713.713 0 0 0-.426.91l1.764 4.843a.712.712 0 0 0 .911.425"/>
        <path fill="#CC003D" d="M14.337 38.378l16.875-6.142a.714.714 0 0 0 .425-.912l-.88-2.42-18.213 6.628.882 2.42a.711.711 0 0 0 .911.426"/>
        <path fill="#344453" d="M53.303 65.316a8.236 8.236 0 1 1-6.96 14.929 8.236 8.236 0 0 1 6.96-14.929"/>
        <path fill="#1A2A3A" d="M48.208 76.242a3.82 3.82 0 0 1 3.229-6.923l-3.229 6.923z"/>
        <path fill="#1A2A3A" d="M53.303 65.316a8.236 8.236 0 1 1-6.961 14.929l6.961-14.929z"/>
        <path fill="#344453" d="M51.437 69.32a3.819 3.819 0 1 1-3.229 6.922l3.229-6.923z"/>
        <path fill="#AAD3EF" d="M50.852 70.582a2.431 2.431 0 0 1-2.055 4.406l2.055-4.406z"/>
        <path fill="#E1EFFA" d="M48.797 74.988a2.431 2.431 0 0 1 2.055-4.406l-2.055 4.406z"/>
        <path fill="#1A2A3A" d="M50.424 71.501a1.418 1.418 0 0 1-1.198 2.569l1.198-2.569z"/>
        <path fill="#344453" d="M49.226 74.07a1.418 1.418 0 0 1 1.198-2.569l-1.198 2.569z"/>
    </g>
</svg>
